<svg height="512pt" viewBox="0 0 512 512" width="512pt" xmlns="http://www.w3.org/2000/svg"><path d="m467.863281 406.058594v-17.65625h-423.726562v17.65625l-44.136719 70.621094v17.652343c.0273438 9.738281 7.917969 17.628907 17.65625 17.65625h476.6875c9.738281-.027343 17.628906-7.917969 17.65625-17.65625v-17.652343zm0 0" fill="#95a5a5"/><path d="m176.550781 476.679688 15.21875-30.429688c1.496094-2.992188 4.550781-4.878906 7.894531-4.882812h112.671876c3.34375.003906 6.398437 1.890624 7.894531 4.882812l15.21875 30.429688zm0 0" fill="#bdc3c7"/><path d="m512 476.679688v17.652343c-.027344 9.738281-7.917969 17.628907-17.65625 17.65625h-476.6875c-9.738281-.027343-17.6289062-7.917969-17.65625-17.65625v-17.652343zm0 0" fill="#7f8c8d"/><path d="m44.136719 167.710938h423.726562v238.347656h-423.726562zm0 0" fill="#67b9cc"/><path d="m467.792969 123.574219h-379.207031l-.796876.175781 12.226563 52.789062h367.777344c4.875 0 8.824219-3.949218 8.824219-8.828124v-35.308594c0-4.875-3.949219-8.828125-8.824219-8.828125zm0 0" fill="#e6e7e8"/><path d="m485.515625 132.402344v35.308594c0 4.878906-3.949219 8.828124-8.824219 8.828124h-62.070312l53.171875-52.964843h8.824219c2.355468-.019531 4.617187.902343 6.289062 2.5625 1.671875 1.65625 2.609375 3.910156 2.609375 6.265625zm0 0" fill="#35495e"/><path d="m396.898438 123.574219-53.179688 52.964843h-70.894531l53.179687-52.964843zm0 0" fill="#35495e"/><path d="m255.097656 123.574219-53.167968 52.964843h-70.894532l53.171875-52.964843zm0 0" fill="#35495e"/><path d="m466.839844 7.800781c-.386719-2.347656-1.707032-4.441406-3.65625-5.804687-1.953125-1.363282-4.371094-1.878906-6.710938-1.433594l-9.214844 1.765625-66.402343 12.835937-69.566407 13.152344-69.738281 13.242188-69.652343 13.242187-102.011719 18.570313 12.359375 53.144531.796875-.179687v-.175782l46.261719-7.945312 69.738281-13.238282 69.652343-13.15625 69.65625-13.152343 69.835938-13.242188 57.910156-11.191406c4.808594-1.0625 7.90625-5.753906 7-10.59375zm0 0" fill="#e6e7e8"/><path d="m199.007812 104.59375.089844.355469-69.746094 13.242187-.089843-.621094 42.628906-62.675781v-.085937l69.648437-13.242188.089844.351563zm0 0" fill="#35495e"/><path d="m381.035156 15.957031-42.628906 62.597657v.085937l-69.660156 13.15625-.085938-.265625 42.714844-62.597656-.085938-.617188 69.566407-13.152344zm0 0" fill="#35495e"/><path d="m476.476562 43.242188c.902344 4.84375-2.191406 9.527343-7 10.59375l-61.234374 11.566406 42.539062-62.507813 1.058594-1.421875 7.945312-1.316406c2.335938-.445312 4.757813.070312 6.707032 1.433594 1.953124 1.363281 3.269531 3.457031 3.65625 5.804687zm0 0" fill="#35495e"/><path d="m114.757812 176.539062h-79.449218c-9.738282-.027343-17.625-7.914062-17.652344-17.652343v-79.449219c.027344-9.738281 7.914062-17.625 17.652344-17.65625h45.816406c4.167969-.007812 7.777344 2.898438 8.652344 6.972656l.441406 1.855469 12.359375 53.140625zm0 0" fill="#2c3e50"/><path d="m408.242188 65.402344-.089844.175781" fill="#35495e"/><g fill="#e6e7e8"><path d="m52.964844 97.09375c-3.984375-.023438-7.457032-2.714844-8.480469-6.566406-1.023437-3.851563.664063-7.910156 4.113281-9.902344 3.449219-1.996094 7.804688-1.433594 10.636719 1.371094 1.625 1.683594 2.542969 3.929687 2.558594 6.269531.023437 2.347656-.898438 4.605469-2.558594 6.265625-1.660156 1.664062-3.921875 2.585938-6.269531 2.5625zm0 0"/><path d="m52.964844 150.058594c-3.984375-.023438-7.457032-2.714844-8.480469-6.566406-1.023437-3.851563.664063-7.910157 4.113281-9.902344 3.449219-1.996094 7.804688-1.433594 10.636719 1.371094 1.625 1.683593 2.542969 3.929687 2.558594 6.269531.023437 2.347656-.898438 4.605469-2.558594 6.269531-1.660156 1.660156-3.921875 2.582031-6.269531 2.558594zm0 0"/><path d="m220.691406 255.265625v72.066406c.023438 6.25 3.480469 11.984375 9 14.921875 5.515625 2.9375 12.199219 2.609375 17.402344-.859375l54.304688-36.035156c4.726562-3.117187 7.566406-8.398437 7.566406-14.0625 0-5.660156-2.839844-10.941406-7.566406-14.058594l-54.304688-36.035156c-5.203125-3.46875-11.886719-3.796875-17.402344-.859375-5.519531 2.9375-8.976562 8.671875-9 14.921875zm0 0"/></g></svg>